# xmcd
#
# Track frame offsets:
#	150
#	15212
#	33632
#	52922
#	71045
#	87977
#	101497
#	114772
#	129920
#	143307
#	158662
#	175267
#	193542
#	207935
#	223567
#	236412
#	252472
#	267217
#	283940
#	299722
#
# Disc length: 4159
#
# Revision: 1
# Processed by: cddbd v1.5.1PL0 Copyright (c) Steve Scherf et al.
# Submitted via: FreeRIP 2.90 
# Normalized: r0:TDELIM( - ),TSWAP
#
DISCID=1a103d14
DTITLE=Various Artist - Simply The Best Line Dancing Album [CD1]
DYEAR=1900
DGENRE=Country
TTITLE0=The Mavericks - Down On The Corner
TTITLE1=Lee Ann Womack - I Hope You Dance (Rawlings Mix: Radio Edit)
TTITLE2=George Strait - Down Louisiana Way
TTITLE3=Rednex - Spirit Of The Hawk (F.A.F. Radio Mix)
TTITLE4=K.T. Oslin - Live Close By, Visit Often
TTITLE5=Travis Tritt - T-R-O-U-B-L-E
TTITLE6=Hal Ketchum - Thats How Much You Mean To Me
TTITLE7=Collin Raye - April Fool
TTITLE8=Trick Pony - One In A Row
TTITLE9=Michael Martin Murphey - JukeBox
TTITLE10=The Forester Sisters - Their Hearts Are Dancing
TTITLE11=Dean Brothers - Mony Mony
TTITLE12=The Revellers - Take Me Home Country Roads
TTITLE13=Randy Travis - King Of The Road
TTITLE14=Kenny Rogers - Ruby, Don't Take Your Love to Town
TTITLE15=John Michael Montgomery - Brand New Me
TTITLE16=Emmylou Harris - Blue Kentucky Girl
TTITLE17=Little Texas - Kick A Little
TTITLE18=Mandy Barnett - The Whispering Wind
TTITLE19=Hank Williams Jr. - Born To Boogie
EXTD=
EXTT0=
EXTT1=
EXTT2=
EXTT3=
EXTT4=
EXTT5=
EXTT6=
EXTT7=
EXTT8=
EXTT9=
EXTT10=
EXTT11=
EXTT12=
EXTT13=
EXTT14=
EXTT15=
EXTT16=
EXTT17=
EXTT18=
EXTT19=
PLAYORDER=
